<svg height="24" viewBox="0 0 24 24" width="24" xmlns="http://www.w3.org/2000/svg"><g fill="none" fill-rule="evenodd" transform=""><rect fill="#5cd5c8" height="24" rx="3" width="24"/><g fill="#fff" fill-rule="nonzero"><path d="m7.61222312 20.5473872v-17.08791847h5.01446898c1.4989075 0 2.6964812.35852613 3.5927211 1.07557839.8962399.71705227 1.344474 1.66763782 1.3447022 2.85175665 0 .94144529-.2662923 1.77252213-.798877 2.4932305-.5325848.72070833-1.265488 1.23199083-2.1987098 1.53384743v.044216c1.1608202.1323051 2.088449.5717224 2.7828865 1.3182519.6944375.7465296 1.0416563 1.693459 1.0416563 2.8407884 0 1.470894-.5272201 2.660497-1.5816602 3.5688089-1.0544402.9083119-2.4046212 1.3621251-4.0505431 1.3614396zm2.20418852-15.15749861v5.35047131h2.00421246c1.0651694 0 1.9009143-.2592402 2.5072345-.77772065.6063202-.51848044.9093661-1.23736076.9091378-2.15664096 0-1.61051128-1.072931-2.41576692-3.2187932-2.41576692zm0 7.26992291v5.9571551h2.64488926c1.153515 0 2.0438196-.2665524 2.6709135-.7996572.627094-.5331049.9417824-1.2736933.9440652-2.2217653 0-1.956241-1.3262113-2.9343616-3.9786338-2.9343616z"/><path d="m12.7588681 20.6844901h-5.2836149v-17.36212505h5.1514389c1.523448 0 2.7613137.37189373 3.6783273 1.10574122.9262591.74104542 1.396066 1.73676091 1.396066 2.9586975 0 .96692374-.2777066 1.83307626-.8259287 2.57480721-.4660401.62964862-1.0854866 1.10951152-1.8480667 1.42724932.9861835.1898886 1.7994424.6238218 2.4223131 1.2932305.7153255.7691517 1.0782958 1.7562982 1.0782958 2.9340189 0 1.5057412-.5478797 2.7420737-1.6292573 3.6726649-1.0748715.9261354-2.4675132 1.3957155-4.1395735 1.3957155zm-5.00967504-.2742073h5.00967504c1.6046026 0 2.9369776-.445587 3.9608278-1.3292202 1.0176865-.8767781 1.5337207-2.0425022 1.5337207-3.4649529 0-1.106084-.3379733-2.0305056-1.0046744-2.7472151s-1.5751541-1.1475578-2.6979651-1.275407l-.1215608-.0137104v-.2663239l.0948517-.0305056c.9009197-.2910025 1.6176148-.7904027 2.1305671-1.48449011.5129524-.6940874.772168-1.50471293.772168-2.41165382 0-1.13487575-.435222-2.05655527-1.2929961-2.74447301-.8673621-.69374463-2.047358-1.0454156-3.5074573-1.0454156h-4.87715664zm4.71210784-1.6562125h-2.78185918v-6.2313625h2.41820408c2.7308378 0 4.1156038 1.033419 4.1156038 3.0714653 0 .986461-.3331794 1.7696658-.990635 2.327335-.6506072.5532134-1.5796057.8325622-2.7613137.8325622zm-2.50791932-.2742074h2.50791932c1.1149352 0 1.9843518-.2580977 2.5839376-.7670951.5930798-.5035133.8940712-1.2161097.8940712-2.1182519 0-.9405313-.3081823-1.624336-.9389288-2.0908312-.6307465-.4664953-1.6124785-.7067695-2.9027351-.7067695h-2.14426422zm1.86724252-7.6023993h-2.14118238v-5.62467869h2.34115848c2.2257612 0 3.3557631.85895459 3.3557631 2.55287061 0 .95698371-.3222217 1.71756639-.9587894 2.26221078-.6280071.536761-1.5011904.8095973-2.5969498.8095973zm-1.86895464-.2742074h1.86895464c1.0272744 0 1.8405334-.250557 2.418204-.74481576.571507-.48877463.8611984-1.17943444.8611984-2.05244215 0-1.5335047-1.0077562-2.27866324-3.0818233-2.27866324h-2.06482162z"/></g></g></svg>