<svg height="24" viewBox="0 0 24 24" width="24" xmlns="http://www.w3.org/2000/svg"><path d="m11.9999996 0c-6.62741678 0-11.9999996 5.50902553-11.9999996 12.3047529-.00038282 5.2965693 3.30472015 9.9990943 8.20499973 11.6741343.59999998.1153571.82049997-.2645521.82049997-.5921662 0-.2922379-.0105-1.0658992-.015-2.091808-3.33899989.7428995-4.04249986-1.650375-4.04249986-1.650375-.54599999-1.4211989-1.33499996-1.7995701-1.33499996-1.7995701-1.08749996-.7628947.084-.7475137.084-.7475137 1.20449996.0861332 1.83749994 1.2673895 1.83749994 1.2673895 1.07099996 1.8810891 2.8094999 1.3381419 3.49499988 1.0228326.108-.7951946.41699999-1.3381419.76049998-1.6457607-2.66549992-.3076188-5.46599982-1.3658276-5.46599982-6.080086 0-1.3427562.46499998-2.44095539 1.23449996-3.30228809-.135-.31069501-.53999999-1.56116553.10499999-3.25614524 0 0 1.00499997-.33069023 3.29999989 1.26123717.97779682-.273315 1.9865266-.41295193 2.9999999-.41528541 1.0134733.00233348 2.0222031.14197041 2.9999999.41528541 2.2799999-1.5919274 3.2849999-1.26123717 3.2849999-1.26123717.645 1.69497971.24 2.94545023.12 3.25614524.8074872.89850603 1.2477755 2.08058619 1.23 3.30228809 0 4.7265632-2.805 5.7678529-5.4749999 6.0708574.42.3691426.81 1.1228087.81 2.2763793 0 1.6457607-.015 2.9685217-.015 3.3684261 0 .3229998.21.7075233.825.5844758 4.915095-1.6504564 8.2383754-6.3539343 8.2364997-11.6572153 0-6.79572737-5.3725828-12.3047529-11.9999996-12.3047529" fill="#1e1c24" transform=""/></svg>