<svg height="24" viewBox="0 0 24 24" width="24" xmlns="http://www.w3.org/2000/svg"><g fill="#019cff" transform=""><path d="m15.018363 17.3120285 1.5117438-1.1696797h1.1982918v-7.9887545h-3.3664057v7.9887545h.313879z"/><path d="m12 0c-6.62733096 0-12 5.37266904-12 12 0 6.627331 5.37266904 12 12 12 6.627331 0 12-5.372669 12-12 0-6.62733096-5.372669-12-12-12zm.507758 12.8041281h-2.76768683l-.4560854 1.882847.65594306-.5705338s1.48355867 1.7120285 1.76882557 2.1399288c.2562278.4270463.0286121 1.9400712.0286121 1.9400712l-2.53921704-3.1669751s-.79900357 2.824484-1.88284697 3.4808541c-1.08427045.6273309-2.19672597.1708185-2.19672597.1708185s1.54035588-1.1124555 2.36797153-2.510605c.79857651-1.3977224 1.08384342-3.3377936 1.08384342-3.3377936h-3.16654805s.22804271-1.1410676.65594306-1.1696797c.42790036-.0286121 2.51060499 0 2.51060499 0l-.02946621-3.4808541-1.19572953.0572242s-.2280427.85409253-.88441282 1.34092528c-.65637011.48683272-1.05523132.31387901-1.05523132.31387899 0-.00000003 1.16967973-3.28099643 1.54035589-3.93736655.37067615-.65637012 1.39814946-.71316727 1.39814946-.71316724l-.68327403 1.82604982h4.07999999c.4851246 0 .5124555 1.14106762.5124555 1.1410676h-2.511032v3.4236299s1.6834164-.0572242 2.2253381 0 .5423487 1.1696797.5423487 1.1696797zm6.3629893 4.4792883h-2.5400711l-1.7974378 1.283701-.3706761-1.283701h-1.0274733l.0286121-10.29950181h5.7061921z"/></g></svg>